<svg xmlns="http://www.w3.org/2000/svg" viewBox="0 0 256 256" style="enable-background:new 0 0 256 256" xml:space="preserve"><style>.st1{fill:#fc657e}.st3{fill:#5290db}.st5{fill:#f5c84c}.st23{fill:#f9d0b4}</style><g id="Layer_36"><path d="M225.663 47.145H119.349a18.638 18.638 0 0 1 1.525 7.396c0 10.332-8.376 18.708-18.707 18.708S83.46 64.873 83.46 54.541c0-2.628.547-5.127 1.525-7.396H30.337c-4.553 0-8.279 3.725-8.279 8.279V192.16c0 4.553 3.725 8.279 8.279 8.279h195.325c4.553 0 8.279-3.725 8.279-8.279V55.423c0-4.553-3.725-8.278-8.278-8.278z" style="fill:#3a70bf"/><path d="M228.135 59.097H120.292c-2.037 8.125-9.368 14.151-18.125 14.151s-16.088-6.026-18.125-14.151H27.865c-3.194 0-5.806 2.613-5.806 5.806v117.084c0 3.194 2.613 5.806 5.806 5.806h200.27c3.194 0 5.806-2.613 5.806-5.806V64.903c0-3.193-2.612-5.806-5.806-5.806z" style="fill:#9be5f9"/><path class="st3" d="M22.058 175.842v6.146c0 3.193 2.613 5.806 5.806 5.806h200.27c3.194 0 5.806-2.613 5.806-5.806v-6.146H22.058z"/><path d="M22.058 175.842v6.146c0 3.193 2.613 5.806 5.806 5.806h13.752v-11.952H22.058z" style="fill:#fcdd86"/><path d="M225.663 44.645H120.438a2.5 2.5 0 1 0 0 5h105.225a5.785 5.785 0 0 1 5.779 5.779V192.16a5.785 5.785 0 0 1-5.779 5.779 2.5 2.5 0 1 0 0 5c5.943 0 10.779-4.835 10.779-10.779V55.423c-.001-5.943-4.836-10.778-10.779-10.778zM84.417 44.645h-54.08c-5.943 0-10.779 4.835-10.779 10.779V192.16c0 5.943 4.835 10.779 10.779 10.779a2.5 2.5 0 1 0 0-5 5.785 5.785 0 0 1-5.779-5.779V55.423a5.785 5.785 0 0 1 5.779-5.779h54.079a2.5 2.5 0 0 0 .001-4.999z"/><path d="M228.135 56.597H121.208a2.5 2.5 0 1 0 0 5h106.927a3.31 3.31 0 0 1 3.307 3.306 2.5 2.5 0 1 0 5 0c-.001-4.58-3.727-8.306-8.307-8.306zM233.941 179.487a2.5 2.5 0 0 0-2.5 2.5 3.31 3.31 0 0 1-3.307 3.307H27.865a3.31 3.31 0 0 1-3.306-3.307 2.5 2.5 0 1 0-5 0c0 4.58 3.726 8.307 8.306 8.307h200.27c4.58 0 8.307-3.727 8.307-8.307a2.501 2.501 0 0 0-2.501-2.5zM83.063 56.597H27.865c-4.58 0-8.306 3.726-8.306 8.306a2.5 2.5 0 1 0 5 0 3.31 3.31 0 0 1 3.306-3.306h55.199a2.5 2.5 0 1 0-.001-5z"/><circle class="st5" cx="92.833" cy="136.041" r="27.837"/><circle transform="rotate(-22.5 166.24 98.037)" cx="166.248" cy="98.041" style="fill:#fca265" r="24.547"/><circle class="st1" cx="102.167" cy="54.541" r="18.707"/><path class="st23" d="M92.833 122.122a8.225 8.225 0 1 0 .002 16.448 8.225 8.225 0 0 0-.002-16.448z"/><path class="st3" d="M98.878 140.068h-12.09c-6.011 0-10.929 4.918-10.929 10.928v7.101a27.712 27.712 0 0 0 16.974 5.781 27.706 27.706 0 0 0 16.974-5.781v-7.101c0-6.01-4.918-10.928-10.929-10.928z"/><circle class="st23" cx="166.248" cy="93.02" r="7.253"/><path class="st3" d="M171.579 101.592h-10.661c-5.3 0-9.637 4.337-9.637 9.637v6.261a24.435 24.435 0 0 0 14.968 5.097 24.437 24.437 0 0 0 14.968-5.097v-6.261c-.001-5.3-4.338-9.637-9.638-9.637z"/><circle class="st23" cx="102.167" cy="50.714" r="5.527"/><path class="st3" d="M106.229 57.247h-8.125c-4.039 0-7.344 3.305-7.344 7.344v4.772c3.158 2.434 7.112 3.885 11.407 3.885s8.249-1.451 11.407-3.885v-4.772c0-4.039-3.305-7.344-7.345-7.344z"/><path d="M250.528 200.439H5.472a2.972 2.972 0 0 0-2.972 2.972c0 8.26 6.696 17.13 14.956 17.13h221.087c8.26 0 14.956-8.869 14.956-17.13a2.971 2.971 0 0 0-2.971-2.972z" style="fill:#edf4fc"/><path d="M90.513 200.439v1.939a7.297 7.297 0 0 0 7.297 7.297h60.38a7.297 7.297 0 0 0 7.297-7.297v-1.939H90.513z" style="fill:#dae6f1"/><path d="M250.528 197.939H5.472A5.478 5.478 0 0 0 0 203.411c0 9.266 7.465 19.629 17.457 19.629h221.087c9.991 0 17.457-10.363 17.457-19.629a5.48 5.48 0 0 0-5.473-5.472zm-11.985 20.102H17.457c-7.016 0-12.457-7.865-12.457-14.63 0-.26.212-.472.472-.472h245.056c.26 0 .472.212.472.472 0 6.765-5.441 14.63-12.457 14.63z"/><path d="M165.487 198.344a2.5 2.5 0 0 0-2.5 2.5v1.534a4.803 4.803 0 0 1-4.797 4.797H97.81a4.803 4.803 0 0 1-4.797-4.797V201a2.5 2.5 0 1 0-5 0v1.378c0 5.402 4.395 9.797 9.797 9.797h60.38c5.402 0 9.797-4.395 9.797-9.797v-1.534a2.5 2.5 0 0 0-2.5-2.5zM233.292 173.341h-210.5a2.5 2.5 0 1 0 0 5h210.5a2.5 2.5 0 1 0 0-5z"/><path d="M41.617 174a2.5 2.5 0 0 0-2.5 2.5v10.583a2.5 2.5 0 1 0 5 0V176.5a2.5 2.5 0 0 0-2.5-2.5zM146.72 81.752l-27.003-18.565a2.501 2.501 0 0 0-2.833 4.121l27.003 18.565a2.497 2.497 0 0 0 3.477-.643 2.503 2.503 0 0 0-.644-3.478zM146.413 108.236a2.5 2.5 0 0 0-3.372-1.063l-26.187 13.632a2.5 2.5 0 1 0 2.308 4.435l26.187-13.632a2.499 2.499 0 0 0 1.064-3.372z"/><path d="M92.833 105.704c-16.728 0-30.337 13.609-30.337 30.336 0 16.728 13.609 30.337 30.337 30.337s30.336-13.609 30.336-30.337c.001-16.727-13.608-30.336-30.336-30.336zm0 55.673c-13.971 0-25.337-11.366-25.337-25.337s11.366-25.336 25.337-25.336 25.336 11.366 25.336 25.336-11.365 25.337-25.336 25.337zM166.248 70.994c-14.914 0-27.047 12.133-27.047 27.047 0 14.914 12.133 27.047 27.047 27.047 14.914 0 27.047-12.133 27.047-27.047 0-14.914-12.133-27.047-27.047-27.047zm0 49.094c-12.157 0-22.047-9.891-22.047-22.047s9.89-22.047 22.047-22.047 22.047 9.89 22.047 22.047-9.89 22.047-22.047 22.047zM102.167 33.333c-11.694 0-21.208 9.514-21.208 21.208s9.514 21.208 21.208 21.208 21.208-9.514 21.208-21.208-9.515-21.208-21.208-21.208zm0 37.415c-8.937 0-16.208-7.271-16.208-16.208s7.271-16.208 16.208-16.208 16.208 7.271 16.208 16.208-7.271 16.208-16.208 16.208z"/><path d="M92.833 119.622c-5.914 0-10.725 4.811-10.725 10.725s4.811 10.725 10.725 10.725c5.913 0 10.724-4.811 10.724-10.725s-4.81-10.725-10.724-10.725zm0 16.449c-3.157 0-5.725-2.568-5.725-5.725s2.568-5.725 5.725-5.725c3.156 0 5.724 2.568 5.724 5.725s-2.567 5.725-5.724 5.725z"/><path d="M98.878 137.568h-12.09c-7.404 0-13.428 6.024-13.428 13.429v6.253a2.5 2.5 0 1 0 5 0v-6.253c0-4.647 3.781-8.429 8.428-8.429h12.09c4.647 0 8.429 3.781 8.429 8.429v6.42a2.5 2.5 0 1 0 5 0v-6.42c0-7.405-6.024-13.429-13.429-13.429zM166.248 83.267c-5.377 0-9.752 4.375-9.752 9.752s4.375 9.752 9.752 9.752c5.378 0 9.753-4.375 9.753-9.752s-4.375-9.752-9.753-9.752zm0 14.505c-2.621 0-4.752-2.132-4.752-4.752s2.132-4.752 4.752-4.752 4.753 2.132 4.753 4.752-2.132 4.752-4.753 4.752z"/><path d="M171.579 99.092h-10.662c-6.692 0-12.137 5.445-12.137 12.137v5.615a2.5 2.5 0 1 0 5 0v-5.615c0-3.936 3.202-7.137 7.137-7.137h10.662c3.935 0 7.137 3.202 7.137 7.137v5.646a2.5 2.5 0 1 0 5 0v-5.646c0-6.692-5.445-12.137-12.137-12.137zM102.167 42.687c-4.426 0-8.027 3.601-8.027 8.027 0 4.426 3.601 8.027 8.027 8.027 4.426 0 8.027-3.601 8.027-8.027 0-4.426-3.601-8.027-8.027-8.027zm0 11.054a3.03 3.03 0 0 1-3.027-3.027 3.03 3.03 0 0 1 3.027-3.027 3.03 3.03 0 0 1 3.027 3.027 3.03 3.03 0 0 1-3.027 3.027z"/><path d="M106.229 54.747h-8.125c-5.428 0-9.844 4.416-9.844 9.844v4.366a2.5 2.5 0 1 0 5 0v-4.366a4.85 4.85 0 0 1 4.844-4.844h8.125a4.85 4.85 0 0 1 4.845 4.844v4.366a2.5 2.5 0 1 0 5 0v-4.366c0-5.428-4.417-9.844-9.845-9.844z"/><path class="st5" d="M131.983 18.738c-4.498-.838-8.043-4.31-8.898-8.716a.2.2 0 0 0-.395 0c-.855 4.406-4.4 7.879-8.898 8.716a.195.195 0 0 0 0 .387c4.498.838 8.043 4.31 8.898 8.717a.2.2 0 0 0 .395 0c.855-4.406 4.4-7.879 8.898-8.717a.195.195 0 0 0 0-.387z"/><path class="st1" d="M255.881 108.796c-3.156-.588-5.643-3.024-6.243-6.116-.03-.155-.247-.155-.277 0-.6 3.091-3.087 5.528-6.243 6.116a.137.137 0 0 0 0 .271c3.156.588 5.643 3.024 6.243 6.116.03.155.247.155.277 0 .6-3.092 3.087-5.528 6.243-6.116a.137.137 0 0 0 0-.271z"/><path d="M101.694 234.343h-2.329v-2.33a3.156 3.156 0 1 0-6.314 0v2.33h-2.33a3.157 3.157 0 0 0 0 6.314h2.33v2.33a3.156 3.156 0 1 0 6.314 0v-2.33h2.329a3.156 3.156 0 1 0 0-6.314z" style="fill:#70d6f9"/><circle cx="143.999" cy="31.478" r="3.377" style="fill:#87d147"/><path class="st5" d="M67.999 229.101a3.377 3.377 0 1 0 0 6.754 3.377 3.377 0 0 0 0-6.754z"/></g></svg>